#!OML:ASF X:\für Bonn\!DataBase\2005_08_11_Bastian_Final\c3d\Bastian.ASF
:FULLY-SPECIFIED
:DEGREES
126
root -2.03135 16.7195 -17.2756 126.997 10.341 -186.821
lowerback 41.3728 2.42413 -8.5595
upperback 17.7456 9.44335 -10.5275
thorax 1.34368 9.26625 -9.8694
lowerneck 0.643663 -7.05231 -17.5612
upperneck -0.512191 -10.5103 23.7844
head 2.04257 -5.5621 10.0835
rclavicle 6.2816e-014 -1.59028e-014
rhumerus -46.4113 27.3553 -91.673
rradius 112.531
rwrist 9.68743
rhand -19.3727 15.8111
rfingers 7.12502
rthumb 6.94534 -14.055
lclavicle 6.2816e-014 -1.59028e-014
lhumerus 16.8376 -38.8634 70.414
lradius 114.318
lwrist 33.1811
lhand -7.4439 -13.6211
lfingers 7.12502
lthumb 18.4439 15.5245
rfemur 38.1262 3.06315 23.0227
rtibia 33.1879
rfoot -191.085 -179.18
rtoes 13.5634
lfemur -77.6583 19.8874 -8.91224
ltibia 69.4238
lfoot 11.783 -2.94595
ltoes -45.419
127
root -2.05212 16.729 -17.3039 127.849 10.333 -186.554
lowerback 40.517 2.15844 -8.4358
upperback 17.6689 8.92996 -10.5173
thorax 1.41095 8.86438 -9.6763
lowerneck 0.415639 -7.55391 -17.4902
upperneck -0.210905 -10.213 23.6069
head 2.12191 -4.87303 10.0257
rclavicle 2.8625e-014 -4.77083e-014
rhumerus -48.8128 26.7716 -92.991
rradius 111.904
rwrist 8.29096
rhand -19.4954 15.4967
rfingers 7.12502
rthumb 6.8269 -14.3733
lclavicle 2.8625e-014 -4.77083e-014
lhumerus 15.6616 -38.6342 70.8677
lradius 114.486
lwrist 33.1226
lhand -7.33456 -13.4288
lfingers 7.12502
lthumb 18.549 15.7068
rfemur 37.233 2.77964 22.9364
rtibia 33.5035
rfoot -191.318 -179.228
rtoes 12.7393
lfemur -77.2677 20.4606 -9.49295
ltibia 72.91
lfoot 13.0804 -4.5302
ltoes -45.987
128
root -2.07069 16.741 -17.3289 128.788 10.1925 -186.319
lowerback 39.5521 1.86801 -8.35794
upperback 17.6022 8.38316 -10.5143
thorax 1.52811 8.44226 -9.44706
lowerneck 0.20478 -7.40084 -17.5511
upperneck -0.210725 -9.96988 23.5533
head 2.10634 -4.74302 10.0295
rclavicle 1.43125e-014 -1.01778e-013
rhumerus -51.0521 26.0291 -94.1615
rradius 111.337
rwrist 7.2267
rhand -19.5687 15.004
rfingers 7.12502
rthumb 6.75613 -14.8683
lclavicle 1.43125e-014 -1.01778e-013
lhumerus 14.4632 -38.4509 71.3739
lradius 114.615
lwrist 32.9441
lhand -7.36474 -13.2169
lfingers 7.12502
lthumb 18.52 15.9215
rfemur 36.2682 2.54686 22.8579
rtibia 33.8094
rfoot -191.575 -179.438
rtoes 11.8286
lfemur -76.6536 20.959 -10.1496
ltibia 76.2159
lfoot 13.1126 -5.69023
ltoes -47.0503
129
root -2.08838 16.7572 -17.3518 129.781 9.91922 -186.166
lowerback 38.5235 1.54848 -8.33462
upperback 17.5235 7.78743 -10.5499
thorax 1.66188 7.99515 -9.2172
lowerneck 0.108717 -7.22077 -17.9128
upperneck -0.259274 -9.70661 23.6604
head 2.07862 -4.61237 10.1509
rclavicle -1.98785e-014 -6.36111e-014
rhumerus -53.1961 25.1923 -95.2096
rradius 110.818
rwrist 6.61739
rhand -19.6938 14.3702
rfingers 7.12502
rthumb 6.63546 -15.5059
lclavicle -1.98785e-014 -6.36111e-014
lhumerus 13.1892 -38.2867 71.9398
lradius 114.754
lwrist 32.7409
lhand -7.39222 -12.9846
lfingers 7.12502
lthumb 18.4936 16.1563
rfemur 35.2394 2.3864 22.716
rtibia 34.1302
rfoot -191.825 -179.74
rtoes 10.9708
lfemur -75.7812 21.3655 -10.8779
ltibia 79.2826
lfoot 12.6097 -6.68455
ltoes -47.7769
130
root -2.10596 16.7722 -17.3751 130.824 9.62528 -186.013
lowerback 37.4709 1.2167 -8.2803
upperback 17.4159 7.17383 -10.587
thorax 1.78211 7.53585 -9.00839
lowerneck 0.00940598 -7.03774 -18.3865
upperneck -0.274777 -9.44567 23.8286
head 2.06939 -4.48216 10.3144
rclavicle -1.98785e-014 -9.54166e-015
rhumerus -55.2804 24.2678 -96.1687
rradius 110.389
rwrist 6.56262
rhand -19.8443 13.5945
rfingers 7.12502
rthumb 6.49009 -16.286
lclavicle -1.98785e-014 -9.54166e-015
lhumerus 11.8856 -38.1783 72.5362
lradius 114.887
lwrist 32.5294
lhand -7.43089 -12.805
lfingers 7.12502
lthumb 18.4564 16.3394
rfemur 34.1715 2.29007 22.6515
rtibia 34.4506
rfoot -192.082 -180.133
rtoes 10.0944
lfemur -74.5754 21.6171 -11.4563
ltibia 82.0841
lfoot 11.559 -7.34542
ltoes -48.1018
131
root -2.12661 16.7844 -17.3977 131.889 9.40136 -185.805
lowerback 36.4142 0.897335 -8.18133
upperback 17.2993 6.5688 -10.545
thorax 1.90006 7.06909 -8.74838
lowerneck -0.178396 -6.86689 -18.7374
upperneck -0.26789 -9.18947 23.8422
head 2.06548 -4.35116 10.397
rclavicle -3.89618e-014 -1.33583e-013
rhumerus -57.2521 23.1815 -96.9356
rradius 109.896
rwrist 7.07391
rhand -19.9886 12.9139
rfingers 7.12502
rthumb 6.35084 -16.9709
lclavicle -3.89618e-014 -1.33583e-013
lhumerus 10.5644 -38.0542 73.2296
lradius 115.004
lwrist 32.2842
lhand -7.42414 -12.6877
lfingers 7.12502
lthumb 18.4629 16.4561
rfemur 33.1094 2.22787 22.7102
rtibia 34.7011
rfoot -192.279 -180.57
rtoes 9.33648
lfemur -73.0586 21.7728 -11.8141
ltibia 84.6101
lfoot 10.1216 -7.68303
ltoes -48.5417
132
root -2.1482 16.8015 -17.4135 132.981 9.26605 -185.506
lowerback 35.3693 0.595579 -7.9953
upperback 17.1762 5.98748 -10.3882
thorax 2.01271 6.60278 -8.427
lowerneck -0.400396 -6.71759 -19.1978
upperneck -0.262268 -8.96061 23.85
head 2.07726 -4.23416 10.4943
rclavicle 3.65764e-014 7.31528e-014
rhumerus -59.1836 21.8498 -97.4415
rradius 109.472
rwrist 8.04504
rhand -20.0478 12.3977
rfingers 7.12502
rthumb 6.29369 -17.4888
lclavicle 3.65764e-014 7.31528e-014
lhumerus 9.26393 -37.8745 74.0379
lradius 115.137
lwrist 32.1398
lhand -7.22297 -12.649
lfingers 7.12502
lthumb 18.6564 16.4764
rfemur 32.029 2.11755 22.8651
rtibia 34.8666
rfoot -192.402 -180.937
rtoes 8.55377
lfemur -71.2908 21.894 -11.9005
ltibia 86.9561
lfoot 8.40964 -7.83157
ltoes -49.3818
133
root -2.16943 16.8316 -17.4194 134.059 9.193 -185.224
lowerback 34.3289 0.331822 -7.80332
upperback 17.0379 5.4486 -10.1823
thorax 2.12348 6.15475 -8.0787
lowerneck -0.665346 -6.58475 -19.5975
upperneck -0.229715 -8.74951 23.7556
head 2.09781 -4.12515 10.5409
rclavicle -1.31198e-013 -4.13472e-014
rhumerus -61.044 20.4621 -97.7572
rradius 109.125
rwrist 9.24107
rhand -20.0851 12.0119
rfingers 7.12502
rthumb 6.25765 -17.8757
lclavicle -1.31198e-013 -4.13472e-014
lhumerus 8.09869 -37.7244 74.8693
lradius 115.146
lwrist 31.9784
lhand -6.98751 -12.6858
lfingers 7.12502
lthumb 18.8828 16.4177
rfemur 30.9588 2.009 22.991
rtibia 34.9516
rfoot -192.439 -181.205
rtoes 8.03856
lfemur -69.3421 22.0549 -11.8749
ltibia 89.1676
lfoot 6.77269 -7.92185
ltoes -50.8257
134
root -2.19244 16.8643 -17.422 135.149 9.14434 -184.951
lowerback 33.2733 0.0998577 -7.62575
upperback 16.8857 4.9406 -9.92481
thorax 2.24002 5.71729 -7.68442
lowerneck -0.919144 -6.45823 -19.9839
upperneck -0.226562 -8.54189 23.6186
head 2.10507 -4.01991 10.5701
rclavicle 6.67916e-014 -6.99722e-014
rhumerus -62.6823 19.2695 -97.944
rradius 108.657
rwrist 10.4745
rhand -20.2621 11.7182
rfingers 7.12502
rthumb 6.08677 -18.1744
lclavicle 6.67916e-014 -6.99722e-014
lhumerus 7.07177 -37.5962 75.7072
lradius 115.06
lwrist 31.8189
lhand -6.70869 -12.855
lfingers 7.12502
lthumb 19.151 16.2222
rfemur 29.8662 1.94177 23.1385
rtibia 35.0156
rfoot -192.455 -181.458
rtoes 7.64983
lfemur -67.2075 22.1745 -11.7503
ltibia 91.0982
lfoot 5.69337 -7.86289
ltoes -51.8275
135
root -2.22062 16.8897 -17.4268 136.236 9.17295 -184.723
lowerback 32.2148 -0.102778 -7.43997
upperback 16.7011 4.46822 -9.67854
thorax 2.34278 5.30164 -7.32808
lowerneck -1.22239 -6.34479 -20.2325
upperneck -0.191517 -8.3434 23.4136
head 2.12125 -3.91503 10.5472
rclavicle -8.82604e-014 6.04305e-014
rhumerus -64.1095 18.2118 -98.0813
rradius 108.101
rwrist 11.6227
rhand -20.5117 11.6005
rfingers 7.12502
rthumb 5.84582 -18.2989
lclavicle -8.82604e-014 6.04305e-014
lhumerus 6.16408 -37.4849 76.435
lradius 115.013
lwrist 31.6949
lhand -6.41814 -12.9847
lfingers 7.12502
lthumb 19.4304 16.0645
rfemur 28.7343 1.95988 23.2691
rtibia 35.1404
rfoot -192.517 -181.647
rtoes 7.58315
lfemur -64.8454 22.2259 -11.4304
ltibia 92.7663
lfoot 5.20899 -7.54865
ltoes -51.7895
136
root -2.25331 16.908 -17.432 137.308 9.27982 -184.522
lowerback 31.1588 -0.280816 -7.28721
upperback 16.4865 4.00913 -9.42557
thorax 2.42883 4.89038 -6.96186
lowerneck -1.52357 -6.20377 -20.2885
upperneck -0.180921 -8.09914 23.0715
head 2.10346 -3.78859 10.4436
rclavicle -4.53229e-014 1.90833e-014
rhumerus -65.4847 17.2341 -98.1349
rradius 107.644
rwrist 12.6562
rhand -20.6685 11.7116
rfingers 7.12502
rthumb 5.6944 -18.1919
lclavicle -4.53229e-014 1.90833e-014
lhumerus 5.22595 -37.2825 77.2072
lradius 115.039
lwrist 31.4544
lhand -6.12121 -13.0974
lfingers 7.12502
lthumb 19.7158 15.9227
rfemur 27.558 2.03124 23.3991
rtibia 35.3494
rfoot -192.595 -181.812
rtoes 7.40474
lfemur -62.3072 22.2287 -10.9905
ltibia 94.1586
lfoot 5.23814 -7.09717
ltoes -51.341
137
root -2.29057 16.919 -17.4368 138.393 9.46292 -184.338
lowerback 30.1301 -0.444442 -7.08969
upperback 16.2058 3.55885 -9.19942
thorax 2.44809 4.48711 -6.66588
lowerneck -1.80673 -6.03891 -20.1119
upperneck -0.125646 -7.82841 22.6372
head 2.07511 -3.64865 10.2676
rclavicle 1.39149e-014 1.90833e-014
rhumerus -66.8644 16.2641 -98.1342
rradius 107.32
rwrist 13.5218
rhand -20.7603 12.0753
rfingers 7.12502
rthumb 5.60576 -17.8306
lclavicle 1.39149e-014 1.90833e-014
lhumerus 4.18629 -37.0992 77.9803
lradius 115.118
lwrist 31.0563
lhand -5.8467 -13.2187
lfingers 7.12502
lthumb 19.9797 15.7742
rfemur 26.3519 2.15192 23.5266
rtibia 35.5359
rfoot -192.652 -181.918
rtoes 7.46581
lfemur -59.6604 22.1641 -10.4452
ltibia 95.2959
lfoot 5.67401 -6.8306
ltoes -51.1582
